<svg xmlns="http://www.w3.org/2000/svg" viewBox="0 0 1040.41 136.22"><title>logo_horizontal</title><path d="M68.15,0A68.16,68.16,0,0,0,42.61,131.35a3.56,3.56,0,0,0,2.67-6.6,61.17,61.17,0,1,1,28.83,4.07v-30L110.77,62.2a3.56,3.56,0,0,0-5-5L74.11,88.8V74L97.86,50.29a3.56,3.56,0,1,0-5-5L74.11,64v-16L85.63,36.43a3.56,3.56,0,1,0-5-5l-6.48,6.48V27.72A3.55,3.55,0,0,0,67,27.67v105a3.55,3.55,0,0,0,3.55,3.51c.1,0,.18,0,.28-.06s.19.06.29.06h.16A68.14,68.14,0,0,0,68.15,0Z"/><path d="M38.48,102a3.56,3.56,0,0,0,5,0L53.87,91.64l6,6V87.6l-10-10,5.8-5.8a3.56,3.56,0,0,0-5-5l-5.8,5.8L32.53,60.24a3.56,3.56,0,1,0-5,5l7.85,7.85-2.16,2.16a3.56,3.56,0,1,0,5,5l2.16-2.16,8.46,8.46L38.48,97A3.56,3.56,0,0,0,38.48,102Z"/><path d="M40.86,38.91a3.56,3.56,0,0,0,0,5l5.62,5.62L42,54.08a3.56,3.56,0,1,0,5,5l4.53-4.52L59.89,63V52.91l-14-14A3.56,3.56,0,0,0,40.86,38.91Z"/><path d="M239.07,43.42a26.85,26.85,0,0,0-33.7,11.17,26.83,26.83,0,0,0,0,26.86,26.93,26.93,0,0,0,9.76,9.71,26.32,26.32,0,0,0,13.54,3.6A27,27,0,0,0,239,92.71a29.35,29.35,0,0,0,8.94-5.7l3.83,4.1A36.75,36.75,0,0,1,240.89,98a32.13,32.13,0,0,1-12.49,2.55,33,33,0,0,1-28.59-16.23A31.47,31.47,0,0,1,195.39,68a30.77,30.77,0,0,1,4.47-16.23,33.37,33.37,0,0,1,28.73-16.05,34,34,0,0,1,23.07,9.12l-3.74,4.38A28.06,28.06,0,0,0,239.07,43.42Z"/><path d="M303.41,57q4.88,5,4.88,13.63V100h-6.2V72.14q0-6.75-3.74-10.58T288,57.73Q280,57.83,275.5,63T271,76.61V100h-6.11V32.38H271V63.57q4.83-11.31,19-11.49Q298.53,52.08,303.41,57Z"/><path d="M356.16,55.13a22,22,0,0,1,8.57,8.53,24.72,24.72,0,0,1,3.1,12.4,25.16,25.16,0,0,1-3.1,12.54,21.91,21.91,0,0,1-8.57,8.57,26.69,26.69,0,0,1-24.81,0,21.9,21.9,0,0,1-8.57-8.57,25.11,25.11,0,0,1-3.1-12.54,24.67,24.67,0,0,1,3.1-12.4,22,22,0,0,1,8.57-8.53,26.69,26.69,0,0,1,24.81,0Zm-21.7,4.61a16.42,16.42,0,0,0-6.38,6.66,20.48,20.48,0,0,0-2.28,9.76A20.67,20.67,0,0,0,328.08,86a16.41,16.41,0,0,0,6.38,6.66,19.43,19.43,0,0,0,18.6,0A16.41,16.41,0,0,0,359.45,86a20.67,20.67,0,0,0,2.28-9.85,20.48,20.48,0,0,0-2.28-9.76,16.42,16.42,0,0,0-6.38-6.66,19.43,19.43,0,0,0-18.6,0Z"/><path d="M386.9,35.44a4.22,4.22,0,0,1,1.19,3.05,4.3,4.3,0,0,1-1.23,3.1,4,4,0,0,1-3,1.28,4.08,4.08,0,0,1-3.06-1.28,4.3,4.3,0,0,1-1.23-3.1,4.2,4.2,0,0,1,4.28-4.28A4,4,0,0,1,386.9,35.44Zm-6.11,16.83h6.11V100h-6.11Z"/><path d="M423.65,57.46a18.1,18.1,0,0,0-9.22,2.37,16.52,16.52,0,0,0-6.38,6.61,20.15,20.15,0,0,0-2.28,9.71,20.42,20.42,0,0,0,2.28,9.76,16.43,16.43,0,0,0,6.38,6.66,18.08,18.08,0,0,0,9.22,2.37,21.7,21.7,0,0,0,8.53-1.64,17.35,17.35,0,0,0,6.52-4.74l3.46,3.65a21.34,21.34,0,0,1-8,5.93,26.76,26.76,0,0,1-10.76,2.1,24.28,24.28,0,0,1-12.22-3.06,21.82,21.82,0,0,1-8.44-8.57,25.29,25.29,0,0,1-3.05-12.45,25.28,25.28,0,0,1,3.05-12.45,21.81,21.81,0,0,1,8.44-8.57,24.3,24.3,0,0,1,12.22-3.06,27.42,27.42,0,0,1,10.17,1.83A22.94,22.94,0,0,1,441.43,59L438,63.11A19.78,19.78,0,0,0,423.65,57.46Z"/><path d="M489,59.15q5.83,7.07,5.38,19H454.57a18.36,18.36,0,0,0,5.65,12.36,17.47,17.47,0,0,0,12.4,4.7,21.75,21.75,0,0,0,8.48-1.64,19.52,19.52,0,0,0,6.75-4.65l3.46,3.46A23.81,23.81,0,0,1,483,98.18a27.36,27.36,0,0,1-10.72,2.05,24.47,24.47,0,0,1-12.31-3.06,21.91,21.91,0,0,1-8.44-8.53,25.21,25.21,0,0,1-3.05-12.49,25.28,25.28,0,0,1,3.05-12.45,21.81,21.81,0,0,1,8.44-8.57,24.13,24.13,0,0,1,12.13-3.06Q483.2,52.08,489,59.15Zm-.09,14.27q-.46-7.48-5-11.9t-11.81-4.42a17.05,17.05,0,0,0-12,4.47,17.9,17.9,0,0,0-5.56,11.86Z"/><path d="M570.84,43.42a26.85,26.85,0,0,0-33.7,11.17,26.82,26.82,0,0,0,0,26.86,26.91,26.91,0,0,0,9.75,9.71,26.34,26.34,0,0,0,13.55,3.6,27,27,0,0,0,10.3-2.05,29.38,29.38,0,0,0,8.94-5.7l3.83,4.1A36.77,36.77,0,0,1,572.67,98a32.14,32.14,0,0,1-12.5,2.55,33,33,0,0,1-28.59-16.23A31.45,31.45,0,0,1,527.16,68a30.79,30.79,0,0,1,4.47-16.23,33.37,33.37,0,0,1,28.73-16.05,34,34,0,0,1,23.08,9.12l-3.74,4.38A28.07,28.07,0,0,0,570.84,43.42Z"/><path d="M626.1,55.13a22,22,0,0,1,8.57,8.53,24.72,24.72,0,0,1,3.1,12.4,25.16,25.16,0,0,1-3.1,12.54,21.91,21.91,0,0,1-8.57,8.57,26.69,26.69,0,0,1-24.81,0,21.9,21.9,0,0,1-8.57-8.57,25.11,25.11,0,0,1-3.1-12.54,24.67,24.67,0,0,1,3.1-12.4,22,22,0,0,1,8.57-8.53,26.69,26.69,0,0,1,24.81,0Zm-21.7,4.61A16.42,16.42,0,0,0,598,66.4a20.48,20.48,0,0,0-2.28,9.76A20.67,20.67,0,0,0,598,86a16.41,16.41,0,0,0,6.38,6.66,19.43,19.43,0,0,0,18.6,0A16.41,16.41,0,0,0,629.39,86a20.67,20.67,0,0,0,2.28-9.85,20.48,20.48,0,0,0-2.28-9.76A16.42,16.42,0,0,0,623,59.74a19.43,19.43,0,0,0-18.6,0Z"/><path d="M689.17,57Q694,62,694,70.68V100h-6.2V72.14q0-6.75-3.74-10.58t-10.4-3.83q-7.39.09-11.81,4.56t-5.06,12V100h-6.11V52.26h6.11V63.39A17.77,17.77,0,0,1,664.09,55a23.15,23.15,0,0,1,11.63-2.92Q684.29,52.08,689.17,57Z"/><path d="M729,58.05a24.37,24.37,0,0,0-6.66-1A13.46,13.46,0,0,0,715,58.87a5.91,5.91,0,0,0-2.78,5.34,5.52,5.52,0,0,0,1.5,4,11.4,11.4,0,0,0,3.74,2.51,58.92,58.92,0,0,0,6.24,2.14,62.79,62.79,0,0,1,8,2.87,14.49,14.49,0,0,1,5.29,4.1,10.86,10.86,0,0,1,2.19,7.07,11.3,11.3,0,0,1-4.93,9.89A21.08,21.08,0,0,1,722,100.23a29.46,29.46,0,0,1-10-1.73,22.15,22.15,0,0,1-8.11-4.92l2.46-4.38a23.17,23.17,0,0,0,7.34,4.47,23.71,23.71,0,0,0,8.62,1.64,14.15,14.15,0,0,0,7.89-2,6.56,6.56,0,0,0,3.06-5.84,6.16,6.16,0,0,0-1.55-4.33,10.74,10.74,0,0,0-3.88-2.65q-2.33-1-6.43-2.23a64.72,64.72,0,0,1-7.84-2.83,13.83,13.83,0,0,1-5.1-4,10.46,10.46,0,0,1-2.1-6.79q0-6.29,4.7-9.48A20.39,20.39,0,0,1,722.68,52a28.77,28.77,0,0,1,7.94,1.09,26,26,0,0,1,6.84,3l-2.37,4.65A23.16,23.16,0,0,0,729,58.05Z"/><path d="M792.35,52.26V100h-6.2V88.65a17.9,17.9,0,0,1-7.07,8.57,21.69,21.69,0,0,1-11.35,3q-8.49,0-13.27-5t-4.79-13.63V52.26h6.2V80.17q0,6.75,3.69,10.53t10.17,3.78q7.66-.09,12-5.24t4.38-13.54V52.26Z"/><path d="M810.59,32.38h6.11V100h-6.11Z"/><path d="M859.11,96.76a19.54,19.54,0,0,1-10.58,3.56,11.35,11.35,0,0,1-8.66-3.37q-3.19-3.37-3.19-10.12V58.37h-6.84l-.09-4.74h6.93V41.32h6.11V53.63l15.51-.09v4.83H842.78V85.82q0,8.84,6.57,8.84a15.73,15.73,0,0,0,7.94-2.55Z"/><path d="M876.25,35.44a4.22,4.22,0,0,1,1.19,3.05,4.3,4.3,0,0,1-1.23,3.1,4,4,0,0,1-3,1.28,4.08,4.08,0,0,1-3.06-1.28,4.3,4.3,0,0,1-1.23-3.1,4.2,4.2,0,0,1,4.28-4.28A4,4,0,0,1,876.25,35.44Zm-6.11,16.83h6.11V100h-6.11Z"/><path d="M932.48,57q4.88,5,4.88,13.63V100h-6.2V72.14q0-6.75-3.74-10.58T917,57.73q-7.39.09-11.81,4.56t-5.06,12V100H894V52.26h6.11V63.39A17.77,17.77,0,0,1,907.4,55,23.15,23.15,0,0,1,919,52.08Q927.6,52.08,932.48,57Z"/><path d="M995,52.26V95a24.36,24.36,0,0,1-2.92,12.13,19.62,19.62,0,0,1-8.35,8,27.1,27.1,0,0,1-12.54,2.78,30.56,30.56,0,0,1-19.61-7.3l2.92-4.38a27.32,27.32,0,0,0,7.66,4.83,22.9,22.9,0,0,0,8.76,1.64q8.21,0,13.09-4.79t4.88-12.81V87.37a19,19,0,0,1-7.3,7.84A21,21,0,0,1,970.65,98a21.72,21.72,0,0,1-11.36-3,20.57,20.57,0,0,1-7.75-8.21A25,25,0,0,1,948.76,75a24.76,24.76,0,0,1,2.78-11.85,20.26,20.26,0,0,1,7.8-8.12,22.27,22.27,0,0,1,11.4-2.92,20.73,20.73,0,0,1,10.85,2.78,19.32,19.32,0,0,1,7.3,7.89V52.26ZM980.58,90.79a16.18,16.18,0,0,0,6.11-6.43,19.27,19.27,0,0,0,2.19-9.21,19.47,19.47,0,0,0-2.19-9.3,16.18,16.18,0,0,0-6.11-6.43,18,18,0,0,0-17.69,0,16.49,16.49,0,0,0-6.16,6.43,19.12,19.12,0,0,0-2.23,9.3,18.86,18.86,0,0,0,2.23,9.26,16.69,16.69,0,0,0,6.11,6.38,18.06,18.06,0,0,0,17.74,0Z"/><path d="M1030.19,58.05a24.37,24.37,0,0,0-6.66-1,13.46,13.46,0,0,0-7.34,1.78,5.91,5.91,0,0,0-2.78,5.34,5.52,5.52,0,0,0,1.5,4,11.4,11.4,0,0,0,3.74,2.51,58.92,58.92,0,0,0,6.24,2.14,62.79,62.79,0,0,1,8,2.87,14.49,14.49,0,0,1,5.29,4.1,10.86,10.86,0,0,1,2.19,7.07,11.3,11.3,0,0,1-4.93,9.89,21.08,21.08,0,0,1-12.31,3.42,29.46,29.46,0,0,1-10-1.73,22.15,22.15,0,0,1-8.11-4.92l2.46-4.38a23.17,23.17,0,0,0,7.34,4.47,23.71,23.71,0,0,0,8.62,1.64,14.15,14.15,0,0,0,7.89-2,6.56,6.56,0,0,0,3.06-5.84,6.16,6.16,0,0,0-1.55-4.33,10.74,10.74,0,0,0-3.88-2.65q-2.33-1-6.43-2.23a64.72,64.72,0,0,1-7.84-2.83,13.83,13.83,0,0,1-5.1-4,10.46,10.46,0,0,1-2.1-6.79q0-6.29,4.7-9.48A20.39,20.39,0,0,1,1023.9,52a28.77,28.77,0,0,1,7.94,1.09,26,26,0,0,1,6.84,3l-2.37,4.65A23.16,23.16,0,0,0,1030.19,58.05Z"/></svg>