<svg xmlns="http://www.w3.org/2000/svg" viewBox="0 0 751.57 188.89"><title>logo_main</title><path d="M91.88,0A91.9,91.9,0,0,0,57.45,177.09a4.8,4.8,0,0,0,3.6-8.9,82.47,82.47,0,1,1,38.87,5.49V133.29l49.43-49.43a4.8,4.8,0,0,0-6.78-6.78L99.92,119.73V99.83l32-32A4.8,4.8,0,0,0,125.17,61L99.92,86.26V64.64l15.53-15.52a4.8,4.8,0,0,0-6.78-6.78l-8.74,8.74V37.38a4.79,4.79,0,0,0-9.58-.07V178.94a4.79,4.79,0,0,0,4.78,4.73c.14,0,.25-.07.38-.08s.25.08.39.08h.22A91.88,91.88,0,0,0,91.88,0Z"/><path d="M51.88,137.52a4.8,4.8,0,0,0,6.78,0l14-14,8.12,8.12V118.11L67.33,104.7l7.81-7.81a4.8,4.8,0,1,0-6.78-6.78l-7.81,7.81L43.85,81.22A4.8,4.8,0,0,0,37.07,88L47.66,98.59l-2.91,2.91a4.8,4.8,0,1,0,6.78,6.78l2.91-2.91,11.4,11.4-14,14A4.8,4.8,0,0,0,51.88,137.52Z"/><path d="M55.09,52.47a4.8,4.8,0,0,0,0,6.78l7.57,7.57-6.1,6.1a4.8,4.8,0,1,0,6.78,6.78l6.1-6.1L80.75,84.9V71.33L61.88,52.47A4.8,4.8,0,0,0,55.09,52.47Z"/><path d="M282,23.19a26.85,26.85,0,0,0-33.7,11.17,26.83,26.83,0,0,0,0,26.86,26.93,26.93,0,0,0,9.76,9.71,26.32,26.32,0,0,0,13.54,3.6,27,27,0,0,0,10.31-2.05,29.35,29.35,0,0,0,8.94-5.7l3.83,4.1a36.75,36.75,0,0,1-10.85,6.93,32.13,32.13,0,0,1-12.49,2.55,33,33,0,0,1-28.59-16.23,31.47,31.47,0,0,1-4.42-16.32,30.77,30.77,0,0,1,4.47-16.23,33.37,33.37,0,0,1,28.73-16.05,34,34,0,0,1,23.07,9.12L290.85,29A28.06,28.06,0,0,0,282,23.19Z"/><path d="M346.34,36.82q4.88,5,4.88,13.63V79.82H345V51.91q0-6.75-3.74-10.58t-10.4-3.83q-7.93.09-12.45,5.24t-4.51,13.64V79.82h-6.11V12.15h6.11V43.34q4.83-11.31,19-11.49Q341.47,31.85,346.34,36.82Z"/><path d="M399.1,34.9a22,22,0,0,1,8.57,8.53,24.72,24.72,0,0,1,3.1,12.4,25.16,25.16,0,0,1-3.1,12.54,21.91,21.91,0,0,1-8.57,8.57,26.69,26.69,0,0,1-24.81,0,21.9,21.9,0,0,1-8.57-8.57,25.11,25.11,0,0,1-3.1-12.54,24.67,24.67,0,0,1,3.1-12.4,22,22,0,0,1,8.57-8.53,26.69,26.69,0,0,1,24.81,0Zm-21.7,4.61A16.42,16.42,0,0,0,371,46.17a20.48,20.48,0,0,0-2.28,9.76A20.67,20.67,0,0,0,371,65.78a16.41,16.41,0,0,0,6.38,6.66,19.43,19.43,0,0,0,18.6,0,16.41,16.41,0,0,0,6.38-6.66,20.67,20.67,0,0,0,2.28-9.85,20.48,20.48,0,0,0-2.28-9.76A16.42,16.42,0,0,0,396,39.51a19.43,19.43,0,0,0-18.6,0Z"/><path d="M429.84,15.21A4.22,4.22,0,0,1,431,18.26a4.3,4.3,0,0,1-1.23,3.1,4,4,0,0,1-3,1.28,4.08,4.08,0,0,1-3.06-1.28,4.3,4.3,0,0,1-1.23-3.1A4.2,4.2,0,0,1,426.83,14,4,4,0,0,1,429.84,15.21ZM423.73,32h6.11V79.82h-6.11Z"/><path d="M466.59,37.23a18.1,18.1,0,0,0-9.22,2.37A16.52,16.52,0,0,0,451,46.21a20.15,20.15,0,0,0-2.28,9.71A20.42,20.42,0,0,0,451,65.68a16.43,16.43,0,0,0,6.38,6.66,18.08,18.08,0,0,0,9.22,2.37,21.7,21.7,0,0,0,8.53-1.64,17.35,17.35,0,0,0,6.52-4.74L485.1,72a21.34,21.34,0,0,1-8,5.93A26.76,26.76,0,0,1,466.31,80a24.28,24.28,0,0,1-12.22-3.06,21.82,21.82,0,0,1-8.44-8.57,25.29,25.29,0,0,1-3.05-12.45,25.28,25.28,0,0,1,3.05-12.45,21.81,21.81,0,0,1,8.44-8.57,24.3,24.3,0,0,1,12.22-3.06,27.42,27.42,0,0,1,10.17,1.83,22.94,22.94,0,0,1,7.88,5.11l-3.46,4.1A19.78,19.78,0,0,0,466.59,37.23Z"/><path d="M532,38.92q5.83,7.07,5.38,19H497.5a18.36,18.36,0,0,0,5.65,12.36,17.47,17.47,0,0,0,12.4,4.7A21.75,21.75,0,0,0,524,73.34a19.52,19.52,0,0,0,6.75-4.65l3.46,3.46a23.81,23.81,0,0,1-8.34,5.79A27.36,27.36,0,0,1,515.2,80a24.47,24.47,0,0,1-12.31-3.06,21.91,21.91,0,0,1-8.44-8.53,25.21,25.21,0,0,1-3.05-12.49,25.28,25.28,0,0,1,3.05-12.45,21.81,21.81,0,0,1,8.44-8.57A24.13,24.13,0,0,1,515,31.85Q526.14,31.85,532,38.92Zm-.09,14.27q-.46-7.48-5-11.9T515.1,36.86a17.05,17.05,0,0,0-12,4.47,17.9,17.9,0,0,0-5.56,11.86Z"/><path d="M282,114.38a26.85,26.85,0,0,0-33.7,11.17,26.83,26.83,0,0,0,0,26.86,26.93,26.93,0,0,0,9.76,9.71,26.3,26.3,0,0,0,13.54,3.6,27,27,0,0,0,10.31-2.05,29.3,29.3,0,0,0,8.94-5.7l3.83,4.1A36.71,36.71,0,0,1,283.83,169a32.14,32.14,0,0,1-12.49,2.55,33,33,0,0,1-28.59-16.23A31.48,31.48,0,0,1,238.32,139a30.77,30.77,0,0,1,4.47-16.23,33.37,33.37,0,0,1,28.73-16.05,34,34,0,0,1,23.07,9.12l-3.74,4.38A28.06,28.06,0,0,0,282,114.38Z"/><path d="M337.27,126.1a22,22,0,0,1,8.57,8.53,24.72,24.72,0,0,1,3.1,12.4,25.14,25.14,0,0,1-3.1,12.54,21.91,21.91,0,0,1-8.57,8.57,26.69,26.69,0,0,1-24.81,0,21.9,21.9,0,0,1-8.57-8.57,25.13,25.13,0,0,1-3.1-12.54,24.72,24.72,0,0,1,3.1-12.4,22,22,0,0,1,8.57-8.53,26.69,26.69,0,0,1,24.81,0Zm-21.7,4.6a16.45,16.45,0,0,0-6.38,6.66,22.21,22.21,0,0,0,0,19.61,16.41,16.41,0,0,0,6.38,6.66,19.43,19.43,0,0,0,18.6,0,16.42,16.42,0,0,0,6.38-6.66,22.19,22.19,0,0,0,0-19.61,16.46,16.46,0,0,0-6.38-6.66,19.46,19.46,0,0,0-18.6,0Z"/><path d="M400.33,128q4.88,5,4.88,13.64V171H399V143.1q0-6.74-3.74-10.57t-10.4-3.83q-7.39.09-11.81,4.56t-5.06,12V171H361.9V123.23H368v11.13a17.79,17.79,0,0,1,7.25-8.4A23.17,23.17,0,0,1,386.89,123Q395.46,123,400.33,128Z"/><path d="M440.14,129a24.19,24.19,0,0,0-6.66-1,13.46,13.46,0,0,0-7.34,1.78,5.91,5.91,0,0,0-2.78,5.33,5.52,5.52,0,0,0,1.5,4,11.32,11.32,0,0,0,3.74,2.51,58.39,58.39,0,0,0,6.24,2.14,63.15,63.15,0,0,1,8,2.87,14.51,14.51,0,0,1,5.29,4.1,10.87,10.87,0,0,1,2.19,7.07,11.29,11.29,0,0,1-4.93,9.89,21,21,0,0,1-12.31,3.42,29.46,29.46,0,0,1-10-1.73,22.17,22.17,0,0,1-8.11-4.92l2.46-4.38a23.16,23.16,0,0,0,7.34,4.47,23.66,23.66,0,0,0,8.62,1.64,14.11,14.11,0,0,0,7.89-2,6.55,6.55,0,0,0,3.06-5.84,6.16,6.16,0,0,0-1.55-4.33,10.71,10.71,0,0,0-3.88-2.64q-2.33-1-6.43-2.24a64.72,64.72,0,0,1-7.84-2.83,13.87,13.87,0,0,1-5.1-4,10.47,10.47,0,0,1-2.1-6.8q0-6.29,4.7-9.48A20.38,20.38,0,0,1,433.85,123a28.77,28.77,0,0,1,7.94,1.09,26,26,0,0,1,6.84,3l-2.37,4.65A23.23,23.23,0,0,0,440.14,129Z"/><path d="M503.52,123.23V171h-6.2v-11.4a17.91,17.91,0,0,1-7.07,8.57,21.69,21.69,0,0,1-11.35,3q-8.49,0-13.27-5t-4.79-13.64V123.23H467v27.91q0,6.75,3.69,10.53t10.17,3.78q7.66-.09,12-5.25t4.38-13.54V123.23Z"/><path d="M521.76,103.34h6.11V171h-6.11Z"/><path d="M570.28,167.73a19.51,19.51,0,0,1-10.58,3.55,11.34,11.34,0,0,1-8.66-3.37q-3.19-3.37-3.19-10.12V129.34H541l-.09-4.74h6.93V112.28H554v12.31l15.51-.09v4.83H554v27.45q0,8.84,6.57,8.84a15.69,15.69,0,0,0,7.94-2.55Z"/><path d="M587.42,106.4a4.22,4.22,0,0,1,1.19,3.05,4.3,4.3,0,0,1-1.23,3.1,4,4,0,0,1-3,1.28,4.08,4.08,0,0,1-3.06-1.28,4.3,4.3,0,0,1-1.23-3.1,4.2,4.2,0,0,1,4.28-4.28A4,4,0,0,1,587.42,106.4Zm-6.11,16.83h6.11V171h-6.11Z"/><path d="M643.64,128q4.88,5,4.88,13.64V171h-6.2V143.1q0-6.74-3.74-10.57t-10.4-3.83q-7.39.09-11.81,4.56t-5.06,12V171H605.2V123.23h6.11v11.13a17.79,17.79,0,0,1,7.25-8.4A23.17,23.17,0,0,1,630.19,123Q638.76,123,643.64,128Z"/><path d="M706.16,123.23V166a24.38,24.38,0,0,1-2.92,12.13,19.63,19.63,0,0,1-8.35,8,27.13,27.13,0,0,1-12.54,2.78,30.57,30.57,0,0,1-19.61-7.29l2.92-4.38a27.27,27.27,0,0,0,7.66,4.83,22.86,22.86,0,0,0,8.76,1.64q8.21,0,13.09-4.79t4.88-12.82v-7.75a19,19,0,0,1-7.3,7.84A21,21,0,0,1,681.81,169a21.76,21.76,0,0,1-11.36-3,20.6,20.6,0,0,1-7.75-8.21,26.78,26.78,0,0,1,0-23.76,20.29,20.29,0,0,1,7.8-8.12A22.29,22.29,0,0,1,681.9,123a20.73,20.73,0,0,1,10.85,2.78,19.34,19.34,0,0,1,7.3,7.89V123.23Zm-14.41,38.53a16.2,16.2,0,0,0,6.11-6.43,20.67,20.67,0,0,0,0-18.51,16.19,16.19,0,0,0-6.11-6.43,18,18,0,0,0-17.69,0,16.49,16.49,0,0,0-6.16,6.43,19.13,19.13,0,0,0-2.23,9.3,18.85,18.85,0,0,0,2.23,9.25,16.68,16.68,0,0,0,6.11,6.38,18.08,18.08,0,0,0,17.74,0Z"/><path d="M741.36,129a24.19,24.19,0,0,0-6.66-1,13.46,13.46,0,0,0-7.34,1.78,5.91,5.91,0,0,0-2.78,5.33,5.52,5.52,0,0,0,1.5,4,11.32,11.32,0,0,0,3.74,2.51,58.39,58.39,0,0,0,6.24,2.14,63.15,63.15,0,0,1,8,2.87,14.51,14.51,0,0,1,5.29,4.1,10.87,10.87,0,0,1,2.19,7.07,11.29,11.29,0,0,1-4.93,9.89,21,21,0,0,1-12.31,3.42,29.46,29.46,0,0,1-10-1.73,22.17,22.17,0,0,1-8.11-4.92l2.46-4.38a23.16,23.16,0,0,0,7.34,4.47,23.66,23.66,0,0,0,8.62,1.64,14.11,14.11,0,0,0,7.89-2,6.55,6.55,0,0,0,3.06-5.84A6.16,6.16,0,0,0,744,154.1a10.71,10.71,0,0,0-3.88-2.64q-2.33-1-6.43-2.24a64.72,64.72,0,0,1-7.84-2.83,13.87,13.87,0,0,1-5.1-4,10.47,10.47,0,0,1-2.1-6.8q0-6.29,4.7-9.48A20.38,20.38,0,0,1,735.06,123,28.77,28.77,0,0,1,743,124a26,26,0,0,1,6.84,3l-2.37,4.65A23.23,23.23,0,0,0,741.36,129Z"/></svg>