<svg xmlns="http://www.w3.org/2000/svg" viewBox="0 0 183.76 183.67"><title>logo_simple</title><path d="M91.88,0A91.9,91.9,0,0,0,57.45,177.09a4.8,4.8,0,0,0,3.6-8.9,82.47,82.47,0,1,1,38.87,5.49V133.29l49.43-49.43a4.8,4.8,0,0,0-6.78-6.78L99.92,119.73V99.83l32-32A4.8,4.8,0,0,0,125.17,61L99.92,86.26V64.64l15.53-15.52a4.8,4.8,0,0,0-6.78-6.78l-8.74,8.74V37.38a4.79,4.79,0,0,0-9.58-.07V178.94a4.79,4.79,0,0,0,4.78,4.73c.14,0,.25-.07.38-.08s.25.08.39.08h.22A91.88,91.88,0,0,0,91.88,0Z"/><path d="M51.88,137.52a4.8,4.8,0,0,0,6.78,0l14-14,8.12,8.12V118.11L67.33,104.7l7.81-7.81a4.8,4.8,0,1,0-6.78-6.78l-7.81,7.81L43.85,81.22A4.8,4.8,0,0,0,37.07,88L47.66,98.59l-2.91,2.91a4.8,4.8,0,1,0,6.78,6.78l2.91-2.91,11.4,11.4-14,14A4.8,4.8,0,0,0,51.88,137.52Z"/><path d="M55.09,52.47a4.8,4.8,0,0,0,0,6.78l7.57,7.57-6.1,6.1a4.8,4.8,0,1,0,6.78,6.78l6.1-6.1L80.75,84.9V71.33L61.88,52.47A4.8,4.8,0,0,0,55.09,52.47Z"/></svg>